<svg version="1.1" id="Layer_1" xmlns="http://www.w3.org/2000/svg" xmlns:xlink="http://www.w3.org/1999/xlink" x="0px" y="0px"
	 width="100%" viewBox="0 0 680 223" enable-background="new 0 0 680 223" xml:space="preserve">
<path fill="#010101" opacity="1.000000" stroke="none" 
	d="
M680.000000,224.000000 
	C453.727539,224.000000 227.455078,224.000000 1.091304,224.000000 
	C1.091304,149.747620 1.091304,75.495102 1.091304,1.000000 
	C227.024841,1.000000 453.049774,1.000000 679.538208,1.468657 
	C680.001160,75.958206 680.000549,149.979111 680.000000,224.000000 
M524.867126,140.242462 
	C525.214355,140.187302 525.561584,140.132126 526.034729,140.863113 
	C527.708801,148.163147 529.294067,155.485748 531.138367,162.742493 
	C531.472595,164.057571 532.826111,166.074738 533.781189,166.116486 
	C540.508606,166.410553 547.255005,166.272583 554.508179,166.272583 
	C550.496277,151.772827 546.571838,137.880646 542.878601,123.927269 
	C542.324097,121.832489 542.374939,119.318077 542.960632,117.225914 
	C545.460266,108.296761 548.265747,99.453247 551.049500,90.282227 
	C544.236267,90.282227 537.931274,90.282227 531.374146,90.282227 
	C529.304871,96.320877 527.239136,102.349190 525.173340,108.377495 
	C524.685608,108.245689 524.197815,108.113884 523.710083,107.982079 
	C523.710083,96.548424 523.710083,85.114769 523.710083,73.548096 
	C515.741760,73.548096 508.192047,73.548096 500.930298,73.548096 
	C500.930298,104.463867 500.930298,135.035553 500.930298,165.886780 
	C509.131317,165.886780 516.706787,165.886780 524.325134,165.886780 
	C524.325134,157.164398 524.325134,148.693542 524.867126,140.242462 
M212.202560,199.741745 
	C248.026230,176.342728 265.817596,135.534729 257.455750,95.944542 
	C243.263062,28.747423 168.947006,-7.711952 106.913277,22.088566 
	C53.585491,47.706814 33.520176,110.895538 62.604568,162.304520 
	C91.347572,213.110046 158.967331,232.304962 212.202560,199.741745 
M364.598175,147.512344 
	C364.538879,143.849503 364.352020,140.183380 364.445801,136.524460 
	C364.666870,127.898186 363.504181,120.091324 353.178406,116.869125 
	C359.385803,115.594292 363.369873,112.463440 363.525726,106.565681 
	C363.704529,99.800636 363.648895,92.911140 362.549408,86.265251 
	C361.536224,80.141289 357.180054,75.153595 350.992676,74.507202 
	C337.698700,73.118385 324.284821,72.876892 311.219116,72.181633 
	C311.219116,103.597717 311.219116,133.794693 311.219116,164.264832 
	C319.494324,164.264832 327.095978,164.264832 335.118713,164.264832 
	C335.118713,150.504883 335.118713,136.955673 335.118713,123.381981 
	C340.828094,123.897652 341.658722,124.533394 341.906769,129.573120 
	C342.176788,135.057571 342.144501,140.558365 342.180817,146.052460 
	C342.221130,152.146729 342.190063,158.241455 342.190063,164.586487 
	C350.099823,164.586487 357.176361,164.586487 364.610382,164.586487 
	C364.610382,159.079605 364.610382,153.793198 364.598175,147.512344 
M424.669800,157.072998 
	C425.866882,153.657578 428.005981,150.266174 428.093811,146.822464 
	C428.428864,133.685928 428.427155,120.519310 427.891663,107.390831 
	C427.609070,100.462898 423.393585,95.310532 417.312225,92.001389 
	C410.639679,88.370522 403.409637,87.512917 395.976288,88.583794 
	C383.340332,90.404190 376.654724,97.037178 376.092957,109.645630 
	C375.559784,121.612587 375.869293,133.632019 376.213013,145.616776 
	C376.383270,151.553268 378.269257,157.120697 383.078766,161.173630 
	C393.311981,169.797073 415.483551,167.886307 424.669800,157.072998 
M463.496368,88.508171 
	C461.339783,88.695091 459.161285,88.746780 457.030273,89.091774 
	C446.406250,90.811729 439.067627,97.309990 438.630219,107.621964 
	C438.053314,121.221786 438.417664,134.917130 439.346436,148.505173 
	C439.939728,157.185059 445.261993,163.726639 453.981171,165.444427 
	C460.351013,166.699371 467.244202,166.795029 473.677612,165.855881 
	C481.957703,164.647125 487.261749,158.750931 489.227570,150.751404 
	C490.462219,145.727142 490.251556,140.347672 490.712555,134.851349 
	C483.249298,134.851349 476.665375,134.851349 469.976868,134.851349 
	C469.753845,139.905792 469.803040,144.738922 469.176636,149.482834 
	C468.980255,150.970093 466.965607,152.217270 465.783203,153.574341 
	C464.527740,152.224091 463.201324,150.930099 462.058990,149.490143 
	C461.705353,149.044373 461.787109,148.202454 461.779297,147.540634 
	C461.620178,134.051056 461.352814,120.560066 461.488007,107.073158 
	C461.504883,105.389519 463.668976,103.727402 464.838135,102.055328 
	C465.905914,103.681168 467.674377,105.217194 467.896667,106.951401 
	C468.370300,110.646606 468.041473,114.444664 468.041473,118.692329 
	C474.716034,118.692329 480.519653,118.702881 486.323151,118.683266 
	C487.456757,118.679436 488.589966,118.558533 489.671082,118.494713 
	C491.880432,103.427551 485.170990,92.561142 471.777191,89.422554 
	C469.364380,88.857147 466.827454,88.821144 463.496368,88.508171 
M560.994690,92.500603 
	C560.994690,117.084854 560.994690,141.669098 560.994690,166.548065 
	C570.073303,166.548065 577.963196,166.548065 586.194946,166.548065 
	C586.194946,153.529419 586.194946,140.787781 586.194946,127.637329 
	C591.277161,127.637329 596.027344,127.637329 600.699219,127.637329 
	C600.699219,121.508080 600.699219,115.807953 600.699219,109.807983 
	C595.632690,109.807983 591.015564,109.807983 586.119568,109.807983 
	C586.119568,103.808876 586.119568,98.129898 586.119568,91.940170 
	C591.853760,91.940170 597.238403,91.940170 602.574463,91.940170 
	C602.574463,85.661041 602.574463,79.898064 602.574463,73.777466 
	C588.598511,73.777466 574.892700,73.777466 560.988281,73.777466 
	C560.988281,79.878349 560.988281,85.689659 560.994690,92.500603 
M612.064270,90.565178 
	C611.718689,92.073601 611.065308,93.583771 611.073792,95.090187 
	C611.201599,117.721458 611.411621,140.352280 611.623596,162.983017 
	C611.635559,164.259506 611.830994,165.534286 611.943542,166.839569 
	C620.137695,166.839569 628.027527,166.839569 635.489502,166.839569 
	C635.489502,141.303543 635.489502,116.106041 635.489502,90.454224 
	C627.577454,90.454224 620.279053,90.454224 612.064270,90.565178 
M611.840515,73.745598 
	C611.460449,77.670387 611.080383,81.595184 610.678650,85.743027 
	C619.419922,85.743027 627.174988,85.743027 635.028076,85.743027 
	C635.028076,81.696022 635.028076,77.845100 635.028076,73.655724 
	C627.299133,73.655724 619.998535,73.655724 611.840515,73.745598 
z"/>
<path fill="#FFFFFF" opacity="1.000000" stroke="none" 
	d="
M680.500000,224.000000 
	C680.000549,149.979111 680.001160,75.958206 680.000854,1.468656 
	C680.333313,2.499998 680.957336,3.999808 680.958313,5.500026 
	C681.005981,78.333328 681.000000,151.166672 680.500000,224.000000 
z"/>
<path fill="#1ACD7F" opacity="1.000000" stroke="none" 
	d="
M211.885101,199.918030 
	C158.967331,232.304962 91.347572,213.110046 62.604568,162.304520 
	C33.520176,110.895538 53.585491,47.706814 106.913277,22.088566 
	C168.947006,-7.711952 243.263062,28.747423 257.455750,95.944542 
	C265.817596,135.534729 248.026230,176.342728 211.885101,199.918030 
M127.109360,169.273331 
	C131.959244,175.908005 139.625824,174.927933 146.286758,175.781845 
	C159.439056,177.467911 172.703003,178.322327 185.936890,179.303513 
	C189.008240,179.531250 192.260147,179.324524 195.222397,178.538834 
	C199.327682,177.449951 203.141129,175.218887 207.260818,174.239227 
	C210.725906,173.415253 211.660004,171.669098 211.052765,168.602051 
	C210.279938,164.698639 208.951096,160.861221 208.589218,156.928452 
	C207.282196,142.724487 206.388046,128.482376 205.059647,114.280716 
	C204.831497,111.841431 203.258423,109.523537 202.281754,107.159851 
	C201.199142,104.539757 199.607483,102.017380 199.120544,99.294540 
	C198.604004,96.406166 199.870941,93.093613 199.008804,90.398155 
	C197.858612,86.802071 195.601440,83.488831 193.431931,80.319550 
	C192.319977,78.695175 190.082382,77.871338 188.840515,76.300636 
	C183.902344,70.054893 179.502335,63.345509 174.190918,57.449295 
	C171.576233,54.546730 167.606018,52.555531 163.887131,51.040890 
	C159.835938,49.390903 155.335037,48.877953 151.084106,47.678219 
	C143.797302,45.621662 136.602966,43.207020 129.251450,41.433212 
	C127.585533,41.031254 124.217415,42.142063 123.705376,43.400105 
	C120.407501,51.502735 115.560165,59.764084 115.262688,68.117249 
	C114.792969,81.306580 110.556999,93.509705 108.695557,106.255386 
	C108.221924,109.498512 107.998650,113.176994 106.300873,115.762871 
	C102.260574,121.916626 104.526131,128.437134 104.204300,134.778900 
	C104.129173,136.259232 105.432045,137.807022 106.092155,139.327576 
	C108.042427,143.819977 110.305885,148.207535 111.860428,152.833176 
	C114.109398,159.525162 115.691376,166.497223 124.517166,167.418045 
	C125.248093,167.494308 125.905624,168.273941 127.109360,169.273331 
z"/>
<path fill="#FAFAFA" opacity="1.000000" stroke="none" 
	d="
M364.604279,148.009583 
	C364.610382,153.793198 364.610382,159.079605 364.610382,164.586487 
	C357.176361,164.586487 350.099823,164.586487 342.190063,164.586487 
	C342.190063,158.241455 342.221130,152.146729 342.180817,146.052460 
	C342.144501,140.558365 342.176788,135.057571 341.906769,129.573120 
	C341.658722,124.533394 340.828094,123.897652 335.118713,123.381981 
	C335.118713,136.955673 335.118713,150.504883 335.118713,164.264832 
	C327.095978,164.264832 319.494324,164.264832 311.219116,164.264832 
	C311.219116,133.794693 311.219116,103.597717 311.219116,72.181633 
	C324.284821,72.876892 337.698700,73.118385 350.992676,74.507202 
	C357.180054,75.153595 361.536224,80.141289 362.549408,86.265251 
	C363.648895,92.911140 363.704529,99.800636 363.525726,106.565681 
	C363.369873,112.463440 359.385803,115.594292 353.178406,116.869125 
	C363.504181,120.091324 364.666870,127.898186 364.445801,136.524460 
	C364.352020,140.183380 364.538879,143.849503 364.604279,148.009583 
M334.571503,92.945320 
	C334.571503,98.182991 334.571503,103.420670 334.571503,110.163078 
	C337.585510,108.418900 340.815796,107.531136 340.953827,106.297440 
	C341.510986,101.316971 341.384491,96.200722 340.846222,91.206192 
	C340.736328,90.186737 337.757141,89.476509 336.100616,88.623749 
	C335.588104,89.786629 335.075592,90.949516 334.571503,92.945320 
z"/>
<path fill="#FBFBFB" opacity="1.000000" stroke="none" 
	d="
M524.325134,140.222687 
	C524.325134,148.693542 524.325134,157.164398 524.325134,165.886780 
	C516.706787,165.886780 509.131317,165.886780 500.930298,165.886780 
	C500.930298,135.035553 500.930298,104.463867 500.930298,73.548096 
	C508.192047,73.548096 515.741760,73.548096 523.710083,73.548096 
	C523.710083,85.114769 523.710083,96.548424 523.710083,107.982079 
	C524.197815,108.113884 524.685608,108.245689 525.173340,108.377495 
	C527.239136,102.349190 529.304871,96.320877 531.374146,90.282227 
	C537.931274,90.282227 544.236267,90.282227 551.049500,90.282227 
	C548.265747,99.453247 545.460266,108.296761 542.960632,117.225914 
	C542.374939,119.318077 542.324097,121.832489 542.878601,123.927269 
	C546.571838,137.880646 550.496277,151.772827 554.508179,166.272583 
	C547.255005,166.272583 540.508606,166.410553 533.781189,166.116486 
	C532.826111,166.074738 531.472595,164.057571 531.138367,162.742493 
	C529.294067,155.485748 527.708801,148.163147 526.054932,140.110016 
	C525.653198,137.936829 525.231323,136.516724 524.809448,135.096619 
	C524.509705,135.180771 524.209900,135.264908 523.910156,135.349045 
	C524.048462,136.973587 524.186829,138.598145 524.325134,140.222687 
z"/>
<path fill="#FAFAFA" opacity="1.000000" stroke="none" 
	d="
M424.450043,157.363556 
	C415.483551,167.886307 393.311981,169.797073 383.078766,161.173630 
	C378.269257,157.120697 376.383270,151.553268 376.213013,145.616776 
	C375.869293,133.632019 375.559784,121.612587 376.092957,109.645630 
	C376.654724,97.037178 383.340332,90.404190 395.976288,88.583794 
	C403.409637,87.512917 410.639679,88.370522 417.312225,92.001389 
	C423.393585,95.310532 427.609070,100.462898 427.891663,107.390831 
	C428.427155,120.519310 428.428864,133.685928 428.093811,146.822464 
	C428.005981,150.266174 425.866882,153.657578 424.450043,157.363556 
M405.767700,144.260468 
	C405.709717,138.598068 405.672943,132.935349 405.588257,127.273361 
	C405.486176,120.446091 405.397919,113.617744 405.187286,106.793465 
	C405.117676,104.537865 405.278229,101.337677 401.913361,101.985641 
	C400.572815,102.243790 399.586304,105.180733 398.782654,107.046394 
	C398.355499,108.037987 398.636047,109.346565 398.644440,110.511726 
	C398.727325,122.003372 398.706085,133.497742 398.988220,144.984619 
	C399.061066,147.950729 397.577454,152.846497 402.504730,152.791183 
	C407.033722,152.740356 405.206360,148.021713 405.767700,144.260468 
z"/>
<path fill="#FAFAFA" opacity="1.000000" stroke="none" 
	d="
M463.922119,88.524445 
	C466.827454,88.821144 469.364380,88.857147 471.777191,89.422554 
	C485.170990,92.561142 491.880432,103.427551 489.671082,118.494713 
	C488.589966,118.558533 487.456757,118.679436 486.323151,118.683266 
	C480.519653,118.702881 474.716034,118.692329 468.041473,118.692329 
	C468.041473,114.444664 468.370300,110.646606 467.896667,106.951401 
	C467.674377,105.217194 465.905914,103.681168 464.838135,102.055313 
	C463.668976,103.727402 461.504883,105.389519 461.488007,107.073158 
	C461.352814,120.560066 461.620178,134.051056 461.779297,147.540634 
	C461.787109,148.202454 461.705353,149.044373 462.058990,149.490143 
	C463.201324,150.930099 464.527740,152.224091 465.783203,153.574341 
	C466.965607,152.217270 468.980255,150.970093 469.176636,149.482834 
	C469.803040,144.738922 469.753845,139.905792 469.976868,134.851349 
	C476.665375,134.851349 483.249298,134.851349 490.712555,134.851349 
	C490.251556,140.347672 490.462219,145.727142 489.227570,150.751404 
	C487.261749,158.750931 481.957703,164.647125 473.677612,165.855881 
	C467.244202,166.795029 460.351013,166.699371 453.981171,165.444427 
	C445.261993,163.726639 439.939728,157.185059 439.346436,148.505173 
	C438.417664,134.917130 438.053314,121.221786 438.630219,107.621964 
	C439.067627,97.309990 446.406250,90.811729 457.030273,89.091774 
	C459.161285,88.746780 461.339783,88.695091 463.922119,88.524445 
z"/>
<path fill="#FAFAFA" opacity="1.000000" stroke="none" 
	d="
M560.991455,92.000793 
	C560.988281,85.689659 560.988281,79.878349 560.988281,73.777466 
	C574.892700,73.777466 588.598511,73.777466 602.574463,73.777466 
	C602.574463,79.898064 602.574463,85.661041 602.574463,91.940170 
	C597.238403,91.940170 591.853760,91.940170 586.119568,91.940170 
	C586.119568,98.129898 586.119568,103.808876 586.119568,109.807983 
	C591.015564,109.807983 595.632690,109.807983 600.699219,109.807983 
	C600.699219,115.807953 600.699219,121.508080 600.699219,127.637329 
	C596.027344,127.637329 591.277161,127.637329 586.194946,127.637329 
	C586.194946,140.787781 586.194946,153.529419 586.194946,166.548065 
	C577.963196,166.548065 570.073303,166.548065 560.994690,166.548065 
	C560.994690,141.669098 560.994690,117.084854 560.991455,92.000793 
z"/>
<path fill="#F9F9F9" opacity="1.000000" stroke="none" 
	d="
M612.522461,90.509705 
	C620.279053,90.454224 627.577454,90.454224 635.489502,90.454224 
	C635.489502,116.106041 635.489502,141.303543 635.489502,166.839569 
	C628.027527,166.839569 620.137695,166.839569 611.943542,166.839569 
	C611.830994,165.534286 611.635559,164.259506 611.623596,162.983017 
	C611.411621,140.352280 611.201599,117.721458 611.073792,95.090187 
	C611.065308,93.583771 611.718689,92.073601 612.522461,90.509705 
z"/>
<path fill="#F9F9F9" opacity="1.000000" stroke="none" 
	d="
M612.269226,73.700661 
	C619.998535,73.655724 627.299133,73.655724 635.028076,73.655724 
	C635.028076,77.845100 635.028076,81.696022 635.028076,85.743027 
	C627.174988,85.743027 619.419922,85.743027 610.678650,85.743027 
	C611.080383,81.595184 611.460449,77.670387 612.269226,73.700661 
z"/>
<path fill="#7F7F7F" opacity="1.000000" stroke="none" 
	d="
M524.596130,140.232574 
	C524.186829,138.598145 524.048462,136.973587 523.910156,135.349045 
	C524.209900,135.264908 524.509705,135.180771 524.809448,135.096619 
	C525.231323,136.516724 525.653198,137.936829 525.991943,139.716949 
	C525.561584,140.132126 525.214355,140.187302 524.596130,140.232574 
z"/>
<path fill="#FEFFFE" opacity="1.000000" stroke="none" 
	d="
M126.853302,169.000061 
	C125.905624,168.273941 125.248093,167.494308 124.517166,167.418045 
	C115.691376,166.497223 114.109398,159.525162 111.860428,152.833176 
	C110.305885,148.207535 108.042427,143.819977 106.092155,139.327576 
	C105.432045,137.807022 104.129173,136.259232 104.204300,134.778900 
	C104.526131,128.437134 102.260574,121.916626 106.300873,115.762871 
	C107.998650,113.176994 108.221924,109.498512 108.695557,106.255386 
	C110.556999,93.509705 114.792969,81.306580 115.262688,68.117249 
	C115.560165,59.764084 120.407501,51.502735 123.705376,43.400105 
	C124.217415,42.142063 127.585533,41.031254 129.251450,41.433212 
	C136.602966,43.207020 143.797302,45.621662 151.084106,47.678219 
	C155.335037,48.877953 159.835938,49.390903 163.887131,51.040890 
	C167.606018,52.555531 171.576233,54.546730 174.190918,57.449295 
	C179.502335,63.345509 183.902344,70.054893 188.840515,76.300636 
	C190.082382,77.871338 192.319977,78.695175 193.431931,80.319550 
	C195.601440,83.488831 197.858612,86.802071 199.008804,90.398155 
	C199.870941,93.093613 198.604004,96.406166 199.120544,99.294540 
	C199.607483,102.017380 201.199142,104.539757 202.281754,107.159851 
	C203.258423,109.523537 204.831497,111.841431 205.059647,114.280716 
	C206.388046,128.482376 207.282196,142.724487 208.589218,156.928452 
	C208.951096,160.861221 210.279938,164.698639 211.052765,168.602051 
	C211.660004,171.669098 210.725906,173.415253 207.260818,174.239227 
	C203.141129,175.218887 199.327682,177.449951 195.222397,178.538834 
	C192.260147,179.324524 189.008240,179.531250 185.936890,179.303513 
	C172.703003,178.322327 159.439056,177.467911 146.286758,175.781845 
	C139.625824,174.927933 131.959244,175.908005 126.853302,169.000061 
z"/>
<path fill="#0D0D0D" opacity="1.000000" stroke="none" 
	d="
M334.567291,92.528862 
	C335.075592,90.949516 335.588104,89.786629 336.100616,88.623741 
	C337.757141,89.476509 340.736328,90.186737 340.846222,91.206192 
	C341.384491,96.200722 341.510986,101.316971 340.953827,106.297440 
	C340.815796,107.531136 337.585510,108.418900 334.571503,110.163078 
	C334.571503,103.420670 334.571503,98.182991 334.567291,92.528862 
z"/>
<path fill="#0E0E0E" opacity="1.000000" stroke="none" 
	d="
M405.768738,144.724808 
	C405.206360,148.021713 407.033722,152.740356 402.504730,152.791183 
	C397.577454,152.846497 399.061066,147.950729 398.988220,144.984619 
	C398.706085,133.497742 398.727325,122.003372 398.644440,110.511726 
	C398.636047,109.346565 398.355499,108.037987 398.782654,107.046394 
	C399.586304,105.180733 400.572815,102.243790 401.913361,101.985641 
	C405.278229,101.337677 405.117676,104.537865 405.187286,106.793465 
	C405.397919,113.617744 405.486176,120.446091 405.588257,127.273361 
	C405.672943,132.935349 405.709717,138.598068 405.768738,144.724808 
z"/>
</svg>