<svg version="1.1" id="Layer_1" xmlns="http://www.w3.org/2000/svg" xmlns:xlink="http://www.w3.org/1999/xlink" x="0px" y="0px"
	 width="100%" viewBox="0 0 468 468" enable-background="new 0 0 468 468" xml:space="preserve">
<path fill="#010101" opacity="1.000000" stroke="none" 
	d="
M469.000000,170.000000 
	C469.000000,269.973419 469.000000,369.446869 469.000000,468.960144 
	C313.068237,468.960144 157.136459,468.960144 1.102339,468.960144 
	C1.102339,313.109955 1.102339,157.219788 1.102339,1.164824 
	C156.999863,1.164824 312.999908,1.164824 469.000000,1.164824 
	C469.000000,57.196835 469.000000,113.348419 469.000000,170.000000 
M275.056274,122.094208 
	C277.910248,118.357704 276.411560,116.535576 272.358612,115.488930 
	C248.077484,109.218422 223.709167,108.530273 199.262741,114.347519 
	C196.458893,115.014725 193.844910,116.479805 190.532120,117.822487 
	C192.071121,119.977531 193.094559,121.410652 194.064835,123.488304 
	C194.009094,123.912170 193.953339,124.336037 192.980515,124.778404 
	C188.851593,125.070511 184.629578,124.918770 180.615906,125.760460 
	C174.833694,126.973007 173.094818,129.554550 173.726074,134.312042 
	C174.283249,138.511032 177.589142,141.427536 182.768082,140.930511 
	C188.001053,140.428299 193.083862,138.479935 198.315018,137.807495 
	C203.793564,137.103287 209.388016,136.787766 214.896698,137.047302 
	C217.650635,137.177078 220.594315,139.016968 219.878387,142.676712 
	C219.095718,146.677567 215.796967,145.514709 213.012741,145.533356 
	C199.573059,145.623352 186.086487,145.233658 172.716721,146.286407 
	C166.687180,146.761169 160.603302,149.636856 155.074631,152.461624 
	C150.124100,154.991028 148.513214,160.043671 150.350052,163.839554 
	C152.586929,168.462067 157.020401,169.700989 161.374130,168.595551 
	C167.766861,166.972382 173.955856,164.467712 180.121170,162.056152 
	C184.136536,160.485550 187.857513,158.156830 191.882111,156.616425 
	C201.954605,152.761307 211.606934,154.536148 220.624634,159.836273 
	C226.667801,163.388138 228.786255,170.583298 226.050903,176.274490 
	C223.150787,182.308502 216.311096,184.923630 209.453568,182.513718 
	C207.751465,181.915558 206.170288,180.973297 204.344177,180.098495 
	C201.866302,183.166412 198.969116,185.590530 194.587555,183.902557 
	C191.159317,182.581848 186.698563,182.068726 184.613190,179.586533 
	C181.695847,176.114075 178.790161,176.299942 175.495056,177.102615 
	C169.370453,178.594559 163.217331,180.136719 157.309631,182.296753 
	C152.901215,183.908569 148.860245,186.525345 144.655655,188.694595 
	C145.258316,189.068069 145.860977,189.441528 146.463654,189.815002 
	C145.949890,192.809738 146.196396,196.248566 144.761459,198.705231 
	C141.920563,203.568939 136.915176,202.618256 132.208466,201.494019 
	C131.336868,202.944763 130.511932,204.190979 129.810852,205.503357 
	C114.589493,233.996628 130.258713,273.033203 160.907288,283.101288 
	C169.911392,286.059204 178.745270,285.964294 186.947479,281.024384 
	C196.484833,275.280334 205.731644,269.053833 215.983810,263.046051 
	C218.338272,263.024780 220.692719,263.003510 223.708267,263.274384 
	C222.730057,264.473297 221.972580,266.005127 220.740891,266.821686 
	C198.276825,281.714294 183.071732,301.288452 180.381348,328.988068 
	C180.183762,331.022491 180.355438,333.092743 180.355438,336.094940 
	C198.448807,325.360870 217.329147,324.531860 236.421875,325.106476 
	C247.895340,325.451782 259.359100,326.493408 270.827454,326.496948 
	C277.967163,326.499176 285.107239,325.147583 293.707703,324.251343 
	C281.837067,298.559448 266.701508,278.168030 243.276337,263.910187 
	C244.296722,263.189636 245.142181,262.592621 246.684494,262.019501 
	C247.467529,261.649811 248.250549,261.280121 249.758240,260.993286 
	C250.787567,261.448700 251.904678,261.770477 252.832687,262.380096 
	C262.547699,268.762146 272.141541,275.333618 281.958374,281.553711 
	C288.174835,285.492523 295.069000,285.928009 302.194214,284.261200 
	C324.229675,279.106567 344.133789,256.178680 345.712341,233.598068 
	C346.525055,221.972946 345.693939,210.533813 337.839813,200.961990 
	C336.903381,199.820755 334.871674,198.567108 333.655273,198.823730 
	C321.942932,201.294815 316.812195,197.155365 317.862030,185.596237 
	C306.598999,179.946640 294.679779,176.671295 282.013397,176.254349 
	C275.001526,176.023529 267.618073,176.820450 262.910034,181.897186 
	C259.050171,186.059280 256.437012,187.112366 251.198364,185.141251 
	C244.296890,182.544434 240.453735,179.341232 239.874908,173.475586 
	C239.241913,167.061249 242.966812,160.513687 249.299179,157.875732 
	C259.054749,153.811752 269.027588,153.189621 278.920380,157.433350 
	C283.191833,159.265640 287.146820,161.862442 291.464172,163.553986 
	C296.698181,165.604645 302.076935,167.462982 307.556274,168.653351 
	C311.830170,169.581879 315.995331,168.326172 318.032990,163.853531 
	C320.142334,159.223511 317.924774,155.376083 314.258270,153.091339 
	C310.107025,150.504562 305.457672,148.200073 300.720734,147.165695 
	C285.489349,143.839645 270.068542,143.382355 254.550751,145.425598 
	C252.708557,145.668167 250.575058,143.698181 248.576569,142.753799 
	C249.912720,140.926971 250.859207,138.274979 252.657104,137.425919 
	C258.366089,134.729858 264.226227,135.896408 270.151245,137.592255 
	C275.682861,139.175476 281.416321,140.460632 287.131714,140.857285 
	C291.237610,141.142227 294.348877,138.490097 294.842499,133.916046 
	C295.316498,129.523972 293.139008,126.745544 288.961761,126.049240 
	C284.401917,125.289154 279.744385,125.114906 275.033539,123.996918 
	C274.922699,123.547836 274.811859,123.098763 275.056274,122.094208 
M232.774414,360.072235 
	C237.776947,359.150360 243.264465,359.232605 247.681778,357.099091 
	C257.086975,352.556488 266.008331,346.982910 274.983124,341.590820 
	C279.443420,338.911041 283.583801,335.698914 288.768280,332.104004 
	C271.541748,332.104004 255.616867,332.267181 239.696960,332.055847 
	C225.190369,331.863281 210.661362,331.249664 196.663086,336.012634 
	C192.394501,337.465027 188.383270,339.673706 182.954300,342.122314 
	C199.987564,349.648804 215.217178,356.748810 232.774414,360.072235 
M57.399406,111.536385 
	C60.994102,118.599312 64.588799,125.662231 68.600243,133.543991 
	C60.926876,133.543991 54.001671,133.432022 47.085266,133.628967 
	C45.511730,133.673752 43.474117,134.368561 42.516212,135.498459 
	C40.620415,137.734634 39.329037,140.483231 37.548859,143.413239 
	C49.313393,150.578659 60.770638,157.556915 72.584297,164.752258 
	C74.899422,160.985123 77.021484,157.532120 79.240311,153.921661 
	C74.592468,150.977066 70.471390,148.366180 66.350311,145.755310 
	C66.440247,145.349579 66.530182,144.943863 66.620117,144.538132 
	C68.697800,144.538132 70.807327,144.302383 72.847771,144.578049 
	C82.852440,145.929672 86.190697,140.610291 80.383492,132.560822 
	C79.115059,130.802612 78.367271,128.668777 77.379700,126.707947 
	C77.701248,126.453522 78.022797,126.199104 78.344345,125.944679 
	C82.673553,128.466003 87.002754,130.987320 91.531075,133.624603 
	C93.909897,129.730026 95.957649,126.377480 98.182663,122.734718 
	C86.327232,115.568077 74.857185,108.634415 63.033482,101.486961 
	C61.052547,104.861855 59.299160,107.849098 57.399406,111.536385 
M211.342331,33.504742 
	C211.342331,42.232872 211.342331,50.961002 211.342331,59.718872 
	C216.748932,59.718872 220.832245,59.718872 225.426163,59.718872 
	C225.426163,53.991169 225.426163,48.525116 225.426163,41.932198 
	C229.452484,46.585419 233.131912,50.041000 235.831482,54.141644 
	C240.031281,60.521141 245.677841,60.149651 251.508209,59.085129 
	C251.508209,45.359440 251.508209,31.971867 251.508209,18.808365 
	C246.643692,18.808365 242.430084,18.808365 237.895721,18.808365 
	C237.895721,24.532442 237.895721,29.756882 237.895721,36.374313 
	C234.088303,32.000572 230.599457,28.888245 228.233841,25.078476 
	C224.031662,18.310978 218.129486,18.288200 211.342331,19.472267 
	C211.342331,23.927483 211.342331,28.218109 211.342331,33.504742 
M390.632080,367.858795 
	C383.717834,361.441650 376.803589,355.024506 368.848938,347.641754 
	C363.872894,353.019165 358.130432,359.042084 352.624084,365.273621 
	C350.673645,367.480927 348.846191,370.012756 347.747742,372.715576 
	C344.744507,380.105164 349.905273,387.179871 357.830414,386.918091 
	C358.960938,386.880737 360.086823,386.702881 361.497803,386.561768 
	C361.247009,391.777557 362.441101,396.162384 367.557068,398.127319 
	C372.741180,400.118408 377.135010,397.825439 380.821747,394.543060 
	C387.114655,388.940338 393.087006,382.977570 400.516418,375.907654 
	C397.086548,373.152649 394.106506,370.758972 390.632080,367.858795 
M52.401482,352.095581 
	C53.239120,352.546448 54.398373,353.606598 54.867344,353.359070 
	C66.432922,347.254242 77.925354,341.010834 89.718040,334.636902 
	C87.308731,330.297363 85.172714,326.450043 82.957184,322.459503 
	C79.696457,324.102966 76.946976,325.488770 74.197502,326.874542 
	C73.732101,326.624908 73.266701,326.375305 72.801300,326.125671 
	C73.391441,324.031616 73.887566,321.905151 74.595436,319.851685 
	C75.485703,317.269135 77.857887,314.372833 77.259842,312.277039 
	C76.090286,308.178375 73.304237,304.540985 70.888145,300.171509 
	C68.255775,305.076660 66.079346,309.132233 64.327118,312.397308 
	C60.170685,311.991486 56.656513,310.904388 53.432899,311.470825 
	C43.076744,313.290619 38.292091,322.936768 42.678425,333.315063 
	C45.320126,339.565521 48.898125,345.420227 52.401482,352.095581 
M166.636765,72.229202 
	C167.968857,72.209816 169.308868,72.277573 170.631836,72.157578 
	C184.184296,70.928436 193.710266,59.810478 192.121567,47.112576 
	C190.602158,34.968544 179.984116,27.280722 167.225052,29.086658 
	C154.986664,30.818897 146.098038,40.256672 146.236084,51.372368 
	C146.374893,62.549770 154.148773,70.865837 166.636765,72.229202 
M301.113983,399.707886 
	C297.363708,405.011292 295.902557,410.802155 297.648865,417.162872 
	C299.842560,425.153198 304.726715,430.824799 312.941101,432.641724 
	C322.689301,434.797943 331.142761,431.688110 337.696655,424.322937 
	C343.813293,417.449005 344.711792,409.473480 340.793152,401.125519 
	C337.086304,393.228760 329.406952,388.827728 320.516479,389.412170 
	C312.821289,389.918091 306.505188,393.217041 301.113983,399.707886 
M118.481476,60.004616 
	C104.107445,56.894081 86.527229,71.602570 90.614937,88.280655 
	C93.055710,98.239174 101.884315,104.910942 111.916336,104.409897 
	C123.513893,103.830658 133.872223,94.538887 135.307144,83.427536 
	C136.687119,72.741692 130.497375,63.760754 118.481476,60.004616 
M115.215042,394.757477 
	C125.335739,385.064392 125.571236,372.023895 115.802376,362.233826 
	C106.137108,352.547546 92.502419,351.931610 83.797760,360.788025 
	C76.031845,368.689331 75.645439,381.072876 82.892235,389.808167 
	C91.765869,400.504425 103.859108,402.561005 115.215042,394.757477 
M263.307770,413.164917 
	C263.060699,414.923798 262.813629,416.682648 262.566589,418.441528 
	C261.097107,417.593872 259.512878,416.892181 258.192719,415.854553 
	C257.035278,414.944855 256.263397,413.558990 255.157974,412.564972 
	C253.977280,411.503296 252.570053,409.812653 251.323288,409.864929 
	C246.989380,410.046631 242.682144,410.864990 237.633530,411.538849 
	C241.310287,415.731079 244.329102,419.173126 247.463882,422.747437 
	C241.267319,428.289734 240.209427,434.745239 243.417526,441.588776 
	C246.368149,447.882965 252.271332,450.179382 258.760101,449.767120 
	C266.475830,449.276886 274.134308,447.885620 282.144073,446.842224 
	C280.248749,433.029388 278.431763,419.787628 276.576599,406.267731 
	C271.785919,406.930847 267.562378,407.515472 263.214600,408.117279 
	C263.214600,409.728394 263.214600,411.017883 263.307770,413.164917 
M403.684753,160.049118 
	C403.754150,158.693863 404.339417,157.075180 403.804871,156.028336 
	C401.319031,151.160156 398.523193,146.450272 395.683014,141.408066 
	C397.163910,140.533539 398.368591,139.822144 399.821625,138.964066 
	C402.788666,143.974594 405.614807,148.747208 408.574463,153.745270 
	C411.756989,151.871048 414.428772,150.297592 417.217255,148.655426 
	C414.810547,144.373688 412.656006,140.436844 410.399628,136.559265 
	C408.603607,133.472870 409.966156,132.507965 412.989044,132.241196 
	C416.125977,137.702362 419.167145,142.996826 422.386383,148.601334 
	C425.594757,146.788513 428.432648,145.185013 431.630951,143.377884 
	C426.059113,133.520279 420.703888,124.045921 415.176147,114.266365 
	C403.064911,121.124527 391.414642,127.721664 379.454224,134.494415 
	C385.194305,144.649475 390.652313,154.305527 396.280090,164.261902 
	C398.763611,162.838226 400.896057,161.615814 403.684753,160.049118 
M376.220551,109.344688 
	C382.715698,110.487076 387.589508,107.839867 391.140930,102.627251 
	C394.696381,97.408821 394.869049,91.500381 391.134613,86.752869 
	C385.592316,79.707123 379.055664,73.443558 374.302582,68.314880 
	C363.558929,77.961060 353.587646,86.913765 344.390381,95.171509 
	C347.949615,99.343987 350.838379,102.730484 354.549408,107.080887 
	C356.761780,104.013130 358.578186,101.494400 359.751953,99.866776 
	C365.636475,103.351715 370.542633,106.257240 376.220551,109.344688 
M180.364136,405.490143 
	C182.947464,416.151428 186.008972,426.726898 187.943192,437.504669 
	C189.198044,444.496826 191.855804,448.108215 199.365814,448.537842 
	C202.929504,448.741760 204.795425,448.240753 206.541565,445.274017 
	C208.985016,441.122620 211.810684,437.195618 214.485962,433.181366 
	C219.072037,426.299957 223.668274,419.425293 228.631195,411.992157 
	C225.411911,411.369354 222.807617,411.028931 220.298340,410.341553 
	C216.574814,409.321564 213.566910,409.371704 211.840073,413.660858 
	C211.469254,414.581909 209.570175,415.499420 208.466522,415.400360 
	C205.003799,415.089478 201.518753,414.522369 198.183197,413.564178 
	C196.956100,413.211670 195.592484,411.651367 195.203110,410.365723 
	C193.747711,405.560394 184.986908,402.137238 180.364136,405.490143 
M424.896606,338.605316 
	C425.432037,337.574493 425.837219,336.445770 426.525726,335.530060 
	C429.321869,331.811127 428.933441,328.729858 425.693512,325.229095 
	C421.416870,320.608246 417.751068,315.423279 413.804871,310.495087 
	C409.809448,305.505432 405.792236,300.533234 401.420868,295.101440 
	C399.493805,298.723022 398.127655,301.760529 396.333862,304.520020 
	C394.763733,306.935455 394.992279,308.733002 397.149841,310.473083 
	C399.482849,312.354675 399.642426,314.403931 397.954895,316.922028 
	C396.577148,318.977875 395.467316,321.243256 394.472656,323.518036 
	C393.297546,326.205475 391.628418,327.175751 388.628876,326.533447 
	C387.308441,326.250702 384.999329,326.722565 384.392822,327.661591 
	C382.196716,331.061676 380.532318,334.805237 378.460083,338.820679 
	C392.787842,339.907501 406.347076,341.028351 419.924988,341.832977 
	C421.392975,341.919952 422.969513,340.174866 424.896606,338.605316 
M310.841064,50.353634 
	C304.347168,55.851490 297.853241,61.349342 290.985718,67.163521 
	C294.832336,69.090950 297.686890,70.921227 300.807648,71.919113 
	C302.407745,72.430756 305.098663,72.094391 306.216797,71.018768 
	C308.580292,68.745193 310.521301,68.563812 313.161804,70.211433 
	C315.124084,71.435860 317.241364,72.481293 319.406921,73.293709 
	C322.389130,74.412476 323.565857,76.297615 322.714905,79.381935 
	C322.009583,81.938431 323.055023,83.326927 325.451691,84.326393 
	C328.588531,85.634560 331.568817,87.318138 335.302582,89.182907 
	C335.892059,77.019257 336.446503,65.621185 336.996155,54.222885 
	C337.479828,44.192898 337.430115,44.288322 328.602722,39.913860 
	C326.165771,38.706207 324.515106,38.699268 322.450562,40.615776 
	C318.925751,43.887878 315.099182,46.834904 310.841064,50.353634 
M25.069666,287.788544 
	C25.970284,291.917297 26.870901,296.046051 27.844805,300.510773 
	C40.020012,291.903717 47.362869,276.991730 64.974403,278.042297 
	C63.808491,272.701050 62.847221,268.297333 61.852875,263.742065 
	C59.391125,264.249359 57.540920,264.424622 55.837029,265.019196 
	C50.030899,267.045197 44.592300,266.176544 38.980556,263.920532 
	C32.611412,261.360046 25.978655,259.455261 18.839462,257.056763 
	C19.400333,260.210785 19.973623,262.611145 20.226505,265.044830 
	C20.631754,268.944855 22.407663,271.236969 26.445742,272.096680 
	C29.705395,272.790680 32.803135,274.245148 36.717270,275.624634 
	C32.323303,279.902802 28.678928,283.451111 25.069666,287.788544 
M122.400208,419.457764 
	C122.616096,419.889557 122.718445,420.545349 123.064323,420.720642 
	C133.850723,426.187744 144.660904,431.607941 155.807480,437.206146 
	C157.524551,433.800537 159.068832,430.737640 160.755890,427.391571 
	C157.124634,425.539307 153.769272,423.827789 150.184555,421.999298 
	C154.650055,412.927551 158.941956,404.208466 163.430649,395.089600 
	C159.154160,392.981354 155.210312,391.037109 150.855911,388.890472 
	C146.348236,397.936218 142.003433,406.655121 137.515106,415.662048 
	C133.886215,413.913818 130.497910,412.281525 126.758362,410.480011 
	C125.275589,413.491272 123.968124,416.146484 122.400208,419.457764 
M417.912292,271.206451 
	C419.646576,271.259674 421.420715,271.094910 423.108398,271.403259 
	C431.075043,272.858734 439.018036,274.443665 447.321411,276.050537 
	C448.252197,271.412384 449.117249,267.101959 450.063538,262.386505 
	C436.557739,259.716644 423.452789,257.126007 409.857239,254.438431 
	C407.720642,265.235016 405.680298,275.545197 403.559143,286.263824 
	C407.457336,286.956268 410.767487,287.544250 414.274506,288.167206 
	C415.453522,282.382141 416.510101,277.197906 417.912292,271.206451 
z"/>
<path fill="#FAFAFA" opacity="1.000000" stroke="none" 
	d="
M275.129456,124.685303 
	C279.744385,125.114906 284.401917,125.289154 288.961761,126.049240 
	C293.139008,126.745544 295.316498,129.523972 294.842499,133.916046 
	C294.348877,138.490097 291.237610,141.142227 287.131714,140.857285 
	C281.416321,140.460632 275.682861,139.175476 270.151245,137.592255 
	C264.226227,135.896408 258.366089,134.729858 252.657104,137.425919 
	C250.859207,138.274979 249.912720,140.926971 248.576569,142.753815 
	C250.575058,143.698181 252.708557,145.668167 254.550751,145.425598 
	C270.068542,143.382355 285.489349,143.839645 300.720734,147.165695 
	C305.457672,148.200073 310.107025,150.504562 314.258270,153.091339 
	C317.924774,155.376083 320.142334,159.223511 318.032990,163.853531 
	C315.995331,168.326172 311.830170,169.581879 307.556274,168.653351 
	C302.076935,167.462982 296.698181,165.604645 291.464172,163.553986 
	C287.146820,161.862442 283.191833,159.265640 278.920380,157.433350 
	C269.027588,153.189621 259.054749,153.811752 249.299179,157.875732 
	C242.966812,160.513687 239.241913,167.061249 239.874908,173.475586 
	C240.453735,179.341232 244.296890,182.544434 251.198364,185.141251 
	C256.437012,187.112366 259.050171,186.059280 262.910034,181.897186 
	C267.618073,176.820450 275.001526,176.023529 282.013397,176.254349 
	C294.679779,176.671295 306.598999,179.946640 317.862030,185.596237 
	C316.812195,197.155365 321.942932,201.294815 333.655273,198.823730 
	C334.871674,198.567108 336.903381,199.820755 337.839813,200.961990 
	C345.693939,210.533813 346.525055,221.972946 345.712341,233.598068 
	C344.133789,256.178680 324.229675,279.106567 302.194214,284.261200 
	C295.069000,285.928009 288.174835,285.492523 281.958374,281.553711 
	C272.141541,275.333618 262.547699,268.762146 252.832687,262.380096 
	C251.904678,261.770477 250.787567,261.448700 249.381714,260.586243 
	C249.536972,259.667206 249.990433,259.015289 250.613556,258.666473 
	C253.947388,256.800262 256.383789,254.345840 254.700119,250.283905 
	C253.585709,247.595352 248.168228,247.031570 244.790848,248.882919 
	C238.287750,252.447662 235.422546,259.793915 237.761749,266.905212 
	C240.139374,261.814514 242.030014,260.686096 245.987625,261.995605 
	C245.142181,262.592621 244.296722,263.189636 243.276337,263.910187 
	C266.701508,278.168030 281.837067,298.559448 293.707703,324.251343 
	C285.107239,325.147583 277.967163,326.499176 270.827454,326.496948 
	C259.359100,326.493408 247.895340,325.451782 236.421875,325.106476 
	C217.329147,324.531860 198.448807,325.360870 180.355438,336.094940 
	C180.355438,333.092743 180.183762,331.022491 180.381348,328.988068 
	C183.071732,301.288452 198.276825,281.714294 220.740891,266.821686 
	C221.972580,266.005127 222.730057,264.473297 223.454132,262.741180 
	C227.618591,260.957489 229.601456,263.325226 230.547531,267.266815 
	C233.504807,260.143982 229.252029,249.924225 222.086395,248.311142 
	C219.532333,247.736206 216.416061,249.658661 213.556427,250.441132 
	C214.544220,252.986618 215.390945,255.601776 216.594971,258.040497 
	C217.027069,258.915680 218.320633,259.365601 219.192032,259.988861 
	C217.685959,261.111847 216.395248,262.074280 215.104523,263.036682 
	C205.731644,269.053833 196.484833,275.280334 186.947479,281.024384 
	C178.745270,285.964294 169.911392,286.059204 160.907288,283.101288 
	C130.258713,273.033203 114.589493,233.996628 129.810852,205.503357 
	C130.511932,204.190979 131.336868,202.944763 132.208466,201.494019 
	C136.915176,202.618256 141.920563,203.568939 144.761459,198.705231 
	C146.196396,196.248566 145.949890,192.809738 146.463654,189.815002 
	C145.860977,189.441528 145.258316,189.068069 144.655655,188.694595 
	C148.860245,186.525345 152.901215,183.908569 157.309631,182.296753 
	C163.217331,180.136719 169.370453,178.594559 175.495056,177.102615 
	C178.790161,176.299942 181.695847,176.114075 184.613190,179.586533 
	C186.698563,182.068726 191.159317,182.581848 194.587555,183.902557 
	C198.969116,185.590530 201.866302,183.166412 204.344177,180.098495 
	C206.170288,180.973297 207.751465,181.915558 209.453568,182.513718 
	C216.311096,184.923630 223.150787,182.308502 226.050903,176.274490 
	C228.786255,170.583298 226.667801,163.388138 220.624634,159.836273 
	C211.606934,154.536148 201.954605,152.761307 191.882111,156.616425 
	C187.857513,158.156830 184.136536,160.485550 180.121170,162.056152 
	C173.955856,164.467712 167.766861,166.972382 161.374130,168.595551 
	C157.020401,169.700989 152.586929,168.462067 150.350052,163.839554 
	C148.513214,160.043671 150.124100,154.991028 155.074631,152.461624 
	C160.603302,149.636856 166.687180,146.761169 172.716721,146.286407 
	C186.086487,145.233658 199.573059,145.623352 213.012741,145.533356 
	C215.796967,145.514709 219.095718,146.677567 219.878387,142.676712 
	C220.594315,139.016968 217.650635,137.177078 214.896698,137.047302 
	C209.388016,136.787766 203.793564,137.103287 198.315018,137.807495 
	C193.083862,138.479935 188.001053,140.428299 182.768082,140.930511 
	C177.589142,141.427536 174.283249,138.511032 173.726074,134.312042 
	C173.094818,129.554550 174.833694,126.973007 180.615906,125.760460 
	C184.629578,124.918770 188.851593,125.070511 193.811310,124.943542 
	C196.804794,125.244141 198.967484,125.379601 201.576447,125.638374 
	C209.732452,125.924171 217.574265,127.472237 225.121246,123.354851 
	C222.067657,121.614449 218.805862,120.089325 215.745926,120.421860 
	C210.755081,120.964241 205.895996,122.718803 200.606995,123.843033 
	C198.194473,123.430710 196.156235,123.137245 194.118011,122.843781 
	C193.094559,121.410652 192.071121,119.977531 190.532120,117.822487 
	C193.844910,116.479805 196.458893,115.014725 199.262741,114.347519 
	C223.709167,108.530273 248.077484,109.218422 272.358612,115.488930 
	C276.411560,116.535576 277.910248,118.357704 274.526245,122.410538 
	C272.658325,123.164330 271.320404,123.601784 269.579742,123.979263 
	C264.514740,122.832314 259.865479,121.685295 255.186523,120.675903 
	C250.854248,119.741295 246.765244,120.008308 242.124313,124.459389 
	C252.249329,127.146828 261.116730,126.444336 270.440125,125.161568 
	C272.283203,125.083961 273.706329,124.884628 275.129456,124.685303 
M281.601349,228.455612 
	C280.248627,228.552185 278.895905,228.648758 276.808350,228.715210 
	C274.486145,226.779617 272.163910,224.844040 269.425629,222.561661 
	C260.677124,232.267029 257.156860,243.899979 258.671875,257.095978 
	C258.825531,258.433990 260.272644,260.116486 261.559052,260.758789 
	C287.533203,273.727661 319.356171,261.685333 326.656006,234.396149 
	C331.243713,217.245697 330.674316,217.723740 314.658295,211.621445 
	C305.061432,207.964951 293.819550,208.535004 287.283203,211.928955 
	C292.210266,220.632584 290.313110,226.717606 281.601349,228.455612 
M142.535187,215.280502 
	C142.184402,217.686508 141.331879,220.140991 141.558945,222.491165 
	C144.419235,252.096283 171.837326,270.157867 200.935944,261.273376 
	C210.074051,258.483307 212.017944,259.381989 211.063828,248.316391 
	C210.979767,247.341476 211.334137,246.332809 211.282761,245.350388 
	C210.762192,235.395111 206.954926,226.958450 199.952835,219.584076 
	C195.316010,226.776993 189.943161,228.726273 184.631210,225.620621 
	C179.518143,222.631241 178.843033,217.209839 182.832001,208.928925 
	C168.572952,204.774582 155.519302,207.265335 142.535187,215.280502 
M275.807983,179.894241 
	C272.533997,180.729660 270.869995,183.030716 271.893433,186.091141 
	C272.440826,187.727997 274.740326,189.847794 276.223511,189.828079 
	C278.015015,189.804260 280.750000,188.112137 281.362457,186.493454 
	C282.837097,182.596207 280.557068,180.335953 275.807983,179.894241 
M207.771439,202.414139 
	C208.641220,200.685379 210.050491,198.991440 210.165237,197.213943 
	C210.227570,196.248306 208.194824,194.489288 206.911987,194.279160 
	C205.617111,194.067047 203.630981,194.950180 202.737320,196.015732 
	C200.324463,198.892685 202.340515,201.854309 207.771439,202.414139 
M152.598679,188.850449 
	C152.528137,190.750610 152.153290,192.727341 152.598831,194.497635 
	C152.711700,194.946030 155.948776,195.374710 156.835831,194.666718 
	C157.933289,193.790833 158.077515,191.720612 158.633575,190.166397 
	C156.827591,189.567810 155.021591,188.969223 152.598679,188.850449 
z"/>
<path fill="#FAFAFA" opacity="1.000000" stroke="none" 
	d="
M232.326141,360.027313 
	C215.217178,356.748810 199.987564,349.648804 182.954300,342.122314 
	C188.383270,339.673706 192.394501,337.465027 196.663086,336.012634 
	C210.661362,331.249664 225.190369,331.863281 239.696960,332.055847 
	C255.616867,332.267181 271.541748,332.104004 288.768280,332.104004 
	C283.583801,335.698914 279.443420,338.911041 274.983124,341.590820 
	C266.008331,346.982910 257.086975,352.556488 247.681778,357.099091 
	C243.264465,359.232605 237.776947,359.150360 232.326141,360.027313 
z"/>
<path fill="#F7F7F7" opacity="1.000000" stroke="none" 
	d="
M57.472588,111.186356 
	C59.299160,107.849098 61.052547,104.861855 63.033482,101.486961 
	C74.857185,108.634415 86.327232,115.568077 98.182663,122.734718 
	C95.957649,126.377480 93.909897,129.730026 91.531075,133.624603 
	C87.002754,130.987320 82.673553,128.466003 78.344345,125.944679 
	C78.022797,126.199104 77.701248,126.453522 77.379700,126.707947 
	C78.367271,128.668777 79.115059,130.802612 80.383492,132.560822 
	C86.190697,140.610291 82.852440,145.929672 72.847771,144.578049 
	C70.807327,144.302383 68.697800,144.538132 66.620117,144.538132 
	C66.530182,144.943863 66.440247,145.349579 66.350311,145.755310 
	C70.471390,148.366180 74.592468,150.977066 79.240311,153.921661 
	C77.021484,157.532120 74.899422,160.985123 72.584297,164.752258 
	C60.770638,157.556915 49.313393,150.578659 37.548859,143.413239 
	C39.329037,140.483231 40.620415,137.734634 42.516212,135.498459 
	C43.474117,134.368561 45.511730,133.673752 47.085266,133.628967 
	C54.001671,133.432022 60.926876,133.543991 68.600243,133.543991 
	C64.588799,125.662231 60.994102,118.599312 57.472588,111.186356 
z"/>
<path fill="#F7F7F7" opacity="1.000000" stroke="none" 
	d="
M211.342331,33.006737 
	C211.342331,28.218109 211.342331,23.927483 211.342331,19.472267 
	C218.129486,18.288200 224.031662,18.310978 228.233841,25.078476 
	C230.599457,28.888245 234.088303,32.000572 237.895721,36.374313 
	C237.895721,29.756882 237.895721,24.532442 237.895721,18.808365 
	C242.430084,18.808365 246.643692,18.808365 251.508209,18.808365 
	C251.508209,31.971867 251.508209,45.359440 251.508209,59.085129 
	C245.677841,60.149651 240.031281,60.521141 235.831482,54.141644 
	C233.131912,50.041000 229.452484,46.585419 225.426163,41.932198 
	C225.426163,48.525116 225.426163,53.991169 225.426163,59.718872 
	C220.832245,59.718872 216.748932,59.718872 211.342331,59.718872 
	C211.342331,50.961002 211.342331,42.232872 211.342331,33.006737 
z"/>
<path fill="#F8F8F8" opacity="1.000000" stroke="none" 
	d="
M390.879272,368.112030 
	C394.106506,370.758972 397.086548,373.152649 400.516418,375.907654 
	C393.087006,382.977570 387.114655,388.940338 380.821747,394.543060 
	C377.135010,397.825439 372.741180,400.118408 367.557068,398.127319 
	C362.441101,396.162384 361.247009,391.777557 361.497803,386.561768 
	C360.086823,386.702881 358.960938,386.880737 357.830414,386.918091 
	C349.905273,387.179871 344.744507,380.105164 347.747742,372.715576 
	C348.846191,370.012756 350.673645,367.480927 352.624084,365.273621 
	C358.130432,359.042084 363.872894,353.019165 368.848938,347.641754 
	C376.803589,355.024506 383.717834,361.441650 390.879272,368.112030 
M365.841095,366.058350 
	C364.300476,367.565216 362.454193,368.878540 361.332306,370.650543 
	C360.645172,371.735901 361.069153,373.524750 360.994141,374.997650 
	C362.466522,374.965271 364.282623,375.470276 365.342224,374.792542 
	C367.813782,373.211731 369.921570,371.062164 372.176697,369.143005 
	C372.064789,368.521027 371.952850,367.899048 371.840942,367.277069 
	C370.023682,366.695099 368.206451,366.113159 365.841095,366.058350 
M380.313354,381.676544 
	C384.089264,378.223053 380.436249,377.349915 378.319855,375.529175 
	C376.709137,377.070251 375.005219,378.227112 373.990784,379.822388 
	C373.192535,381.077606 373.244812,382.873688 372.919312,384.429535 
	C374.486572,384.339447 376.105560,384.454987 377.600891,384.078979 
	C378.442139,383.867401 379.079407,382.844635 380.313354,381.676544 
z"/>
<path fill="#F8F8F8" opacity="1.000000" stroke="none" 
	d="
M52.228432,351.774170 
	C48.898125,345.420227 45.320126,339.565521 42.678425,333.315063 
	C38.292091,322.936768 43.076744,313.290619 53.432899,311.470825 
	C56.656513,310.904388 60.170685,311.991486 64.327118,312.397308 
	C66.079346,309.132233 68.255775,305.076660 70.888145,300.171509 
	C73.304237,304.540985 76.090286,308.178375 77.259842,312.277039 
	C77.857887,314.372833 75.485703,317.269135 74.595436,319.851685 
	C73.887566,321.905151 73.391441,324.031616 72.801300,326.125671 
	C73.266701,326.375305 73.732101,326.624908 74.197502,326.874542 
	C76.946976,325.488770 79.696457,324.102966 82.957184,322.459503 
	C85.172714,326.450043 87.308731,330.297363 89.718040,334.636902 
	C77.925354,341.010834 66.432922,347.254242 54.867344,353.359070 
	C54.398373,353.606598 53.239120,352.546448 52.228432,351.774170 
M58.319599,324.822510 
	C51.842724,326.513947 51.483288,328.805939 56.835224,336.433319 
	C59.306793,335.118683 61.825802,333.778778 65.205368,331.981140 
	C62.840378,329.264252 60.965405,327.110291 58.319599,324.822510 
z"/>
<path fill="#F7F7F7" opacity="1.000000" stroke="none" 
	d="
M166.183090,72.227219 
	C154.148773,70.865837 146.374893,62.549770 146.236084,51.372368 
	C146.098038,40.256672 154.986664,30.818897 167.225052,29.086658 
	C179.984116,27.280722 190.602158,34.968544 192.121567,47.112576 
	C193.710266,59.810478 184.184296,70.928436 170.631836,72.157578 
	C169.308868,72.277573 167.968857,72.209816 166.183090,72.227219 
M163.558273,57.951294 
	C167.341187,61.330818 171.364395,61.523270 175.344711,58.489666 
	C179.139053,55.597805 179.504791,49.522186 176.401749,44.862549 
	C173.754196,40.886936 169.135651,39.543137 165.079788,41.568367 
	C160.745041,43.732864 159.028030,48.503979 160.918350,53.487896 
	C161.438965,54.860477 162.330933,56.092201 163.558273,57.951294 
z"/>
<path fill="#F7F7F7" opacity="1.000000" stroke="none" 
	d="
M301.335693,399.420471 
	C306.505188,393.217041 312.821289,389.918091 320.516479,389.412170 
	C329.406952,388.827728 337.086304,393.228760 340.793152,401.125519 
	C344.711792,409.473480 343.813293,417.449005 337.696655,424.322937 
	C331.142761,431.688110 322.689301,434.797943 312.941101,432.641724 
	C304.726715,430.824799 299.842560,425.153198 297.648865,417.162872 
	C295.902557,410.802155 297.363708,405.011292 301.335693,399.420471 
M322.124176,421.079010 
	C327.707062,418.886200 329.702362,416.070160 329.157135,411.152954 
	C328.637970,406.470367 325.187927,402.197235 321.010132,401.485229 
	C316.963440,400.795593 313.836090,402.515594 311.813416,406.009094 
	C309.624725,409.789429 310.684692,415.592926 314.562195,418.652679 
	C316.361969,420.072876 319.036957,420.384003 322.124176,421.079010 
z"/>
<path fill="#F7F7F7" opacity="1.000000" stroke="none" 
	d="
M118.871826,60.075920 
	C130.497375,63.760754 136.687119,72.741692 135.307144,83.427536 
	C133.872223,94.538887 123.513893,103.830658 111.916336,104.409897 
	C101.884315,104.910942 93.055710,98.239174 90.614937,88.280655 
	C86.527229,71.602570 104.107445,56.894081 118.871826,60.075920 
M116.558258,91.333633 
	C120.590332,89.463409 122.873596,86.398338 122.195633,81.878929 
	C121.534294,77.470322 119.024460,73.738922 114.647758,73.006508 
	C111.837311,72.536201 108.138313,73.584320 105.756729,75.258942 
	C102.444176,77.588181 102.468880,81.512527 104.182137,85.178505 
	C106.443832,90.018013 110.159386,92.040764 116.558258,91.333633 
z"/>
<path fill="#F8F8F8" opacity="1.000000" stroke="none" 
	d="
M114.931244,394.982941 
	C103.859108,402.561005 91.765869,400.504425 82.892235,389.808167 
	C75.645439,381.072876 76.031845,368.689331 83.797760,360.788025 
	C92.502419,351.931610 106.137108,352.547546 115.802376,362.233826 
	C125.571236,372.023895 125.335739,385.064392 114.931244,394.982941 
M90.901817,375.978271 
	C91.566048,378.597504 91.555099,381.710083 93.034035,383.733978 
	C96.181831,388.041626 101.776688,387.824158 106.113655,383.871826 
	C110.497787,379.876495 111.228180,374.616272 107.948692,370.656464 
	C104.520813,366.517456 99.026512,366.124847 94.785889,370.009064 
	C93.258217,371.408325 92.317307,373.448181 90.901817,375.978271 
z"/>
<path fill="#F8F8F8" opacity="1.000000" stroke="none" 
	d="
M263.261169,412.736145 
	C263.214600,411.017883 263.214600,409.728394 263.214600,408.117279 
	C267.562378,407.515472 271.785919,406.930847 276.576599,406.267731 
	C278.431763,419.787628 280.248749,433.029388 282.144073,446.842224 
	C274.134308,447.885620 266.475830,449.276886 258.760101,449.767120 
	C252.271332,450.179382 246.368149,447.882965 243.417526,441.588776 
	C240.209427,434.745239 241.267319,428.289734 247.463882,422.747437 
	C244.329102,419.173126 241.310287,415.731079 237.633530,411.538849 
	C242.682144,410.864990 246.989380,410.046631 251.323288,409.864929 
	C252.570053,409.812653 253.977280,411.503296 255.157974,412.564972 
	C256.263397,413.558990 257.035278,414.944855 258.192719,415.854553 
	C259.512878,416.892181 261.097107,417.593872 262.566589,418.441528 
	C262.813629,416.682648 263.060699,414.923798 263.261169,412.736145 
M265.853363,430.673157 
	C263.210907,426.804443 260.142029,429.583771 257.784668,430.727722 
	C256.672211,431.267578 255.814926,434.909607 256.537262,436.188446 
	C259.066895,440.666901 263.038544,438.203217 266.677826,437.849976 
	C266.403168,435.423431 266.181213,433.462280 265.853363,430.673157 
z"/>
<path fill="#F6F6F6" opacity="1.000000" stroke="none" 
	d="
M403.356628,160.221252 
	C400.896057,161.615814 398.763611,162.838226 396.280090,164.261902 
	C390.652313,154.305527 385.194305,144.649475 379.454224,134.494415 
	C391.414642,127.721664 403.064911,121.124527 415.176147,114.266365 
	C420.703888,124.045921 426.059113,133.520279 431.630951,143.377884 
	C428.432648,145.185013 425.594757,146.788513 422.386383,148.601334 
	C419.167145,142.996826 416.125977,137.702362 412.989044,132.241196 
	C409.966156,132.507965 408.603607,133.472870 410.399628,136.559265 
	C412.656006,140.436844 414.810547,144.373688 417.217255,148.655426 
	C414.428772,150.297592 411.756989,151.871048 408.574463,153.745270 
	C405.614807,148.747208 402.788666,143.974594 399.821625,138.964066 
	C398.368591,139.822144 397.163910,140.533539 395.683014,141.408066 
	C398.523193,146.450272 401.319031,151.160156 403.804871,156.028336 
	C404.339417,157.075180 403.754150,158.693863 403.356628,160.221252 
z"/>
<path fill="#F7F7F7" opacity="1.000000" stroke="none" 
	d="
M375.834656,109.253723 
	C370.542633,106.257240 365.636475,103.351715 359.751953,99.866776 
	C358.578186,101.494400 356.761780,104.013130 354.549408,107.080887 
	C350.838379,102.730484 347.949615,99.343987 344.390381,95.171509 
	C353.587646,86.913765 363.558929,77.961060 374.302582,68.314880 
	C379.055664,73.443558 385.592316,79.707123 391.134613,86.752869 
	C394.869049,91.500381 394.696381,97.408821 391.140930,102.627251 
	C387.589508,107.839867 382.715698,110.487076 375.834656,109.253723 
M374.940582,96.398773 
	C376.718750,95.312454 380.151306,93.783127 379.998840,93.213821 
	C379.186798,90.181480 377.477325,87.389458 375.720337,83.778328 
	C372.666321,87.019684 370.705597,89.100700 368.457520,91.486679 
	C370.720184,93.313911 372.494720,94.746979 374.940582,96.398773 
z"/>
<path fill="#F7F7F7" opacity="1.000000" stroke="none" 
	d="
M180.277863,405.110229 
	C184.986908,402.137238 193.747711,405.560394 195.203110,410.365723 
	C195.592484,411.651367 196.956100,413.211670 198.183197,413.564178 
	C201.518753,414.522369 205.003799,415.089478 208.466522,415.400360 
	C209.570175,415.499420 211.469254,414.581909 211.840073,413.660858 
	C213.566910,409.371704 216.574814,409.321564 220.298340,410.341553 
	C222.807617,411.028931 225.411911,411.369354 228.631195,411.992157 
	C223.668274,419.425293 219.072037,426.299957 214.485962,433.181366 
	C211.810684,437.195618 208.985016,441.122620 206.541565,445.274017 
	C204.795425,448.240753 202.929504,448.741760 199.365814,448.537842 
	C191.855804,448.108215 189.198044,444.496826 187.943192,437.504669 
	C186.008972,426.726898 182.947464,416.151428 180.277863,405.110229 
M199.325562,424.098572 
	C199.117004,426.985901 198.908447,429.873260 198.699890,432.760590 
	C199.265488,432.853577 199.831100,432.946564 200.396698,433.039551 
	C201.907394,430.544708 203.418091,428.049866 205.069336,425.322906 
	C202.981918,424.831604 201.555725,424.495941 199.325562,424.098572 
z"/>
<path fill="#F8F8F8" opacity="1.000000" stroke="none" 
	d="
M424.696136,338.942444 
	C422.969513,340.174866 421.392975,341.919952 419.924988,341.832977 
	C406.347076,341.028351 392.787842,339.907501 378.460083,338.820679 
	C380.532318,334.805237 382.196716,331.061676 384.392822,327.661591 
	C384.999329,326.722565 387.308441,326.250702 388.628876,326.533447 
	C391.628418,327.175751 393.297546,326.205475 394.472656,323.518036 
	C395.467316,321.243256 396.577148,318.977875 397.954895,316.922028 
	C399.642426,314.403931 399.482849,312.354675 397.149841,310.473083 
	C394.992279,308.733002 394.763733,306.935455 396.333862,304.520020 
	C398.127655,301.760529 399.493805,298.723022 401.420868,295.101440 
	C405.792236,300.533234 409.809448,305.505432 413.804871,310.495087 
	C417.751068,315.423279 421.416870,320.608246 425.693512,325.229095 
	C428.933441,328.729858 429.321869,331.811127 426.525726,335.530060 
	C425.837219,336.445770 425.432037,337.574493 424.696136,338.942444 
M407.700684,328.883484 
	C409.365906,328.883484 411.031158,328.883484 413.412415,328.883484 
	C411.001404,326.136597 409.198029,324.082031 406.962006,321.534485 
	C405.660339,323.971375 404.691620,325.784882 403.523834,327.971130 
	C405.006561,328.336090 405.950897,328.568542 407.700684,328.883484 
z"/>
<path fill="#F7F7F7" opacity="1.000000" stroke="none" 
	d="
M311.120209,50.136055 
	C315.099182,46.834904 318.925751,43.887878 322.450562,40.615776 
	C324.515106,38.699268 326.165771,38.706207 328.602722,39.913860 
	C337.430115,44.288322 337.479828,44.192898 336.996155,54.222885 
	C336.446503,65.621185 335.892059,77.019257 335.302582,89.182907 
	C331.568817,87.318138 328.588531,85.634560 325.451691,84.326393 
	C323.055023,83.326927 322.009583,81.938431 322.714905,79.381935 
	C323.565857,76.297615 322.389130,74.412476 319.406921,73.293709 
	C317.241364,72.481293 315.124084,71.435860 313.161804,70.211433 
	C310.521301,68.563812 308.580292,68.745193 306.216797,71.018768 
	C305.098663,72.094391 302.407745,72.430756 300.807648,71.919113 
	C297.686890,70.921227 294.832336,69.090950 290.985718,67.163521 
	C297.853241,61.349342 304.347168,55.851490 311.120209,50.136055 
M322.148926,56.431442 
	C320.682770,57.724720 319.216614,59.017998 317.185944,60.809227 
	C319.829163,62.107990 321.751526,63.052551 324.215363,64.263168 
	C324.491302,61.178600 324.751495,58.894329 324.803162,56.605347 
	C324.807709,56.403923 323.447662,56.171684 322.148926,56.431442 
z"/>
<path fill="#F6F6F6" opacity="1.000000" stroke="none" 
	d="
M25.052109,287.393982 
	C28.678928,283.451111 32.323303,279.902802 36.717270,275.624634 
	C32.803135,274.245148 29.705395,272.790680 26.445742,272.096680 
	C22.407663,271.236969 20.631754,268.944855 20.226505,265.044830 
	C19.973623,262.611145 19.400333,260.210785 18.839462,257.056763 
	C25.978655,259.455261 32.611412,261.360046 38.980556,263.920532 
	C44.592300,266.176544 50.030899,267.045197 55.837029,265.019196 
	C57.540920,264.424622 59.391125,264.249359 61.852875,263.742065 
	C62.847221,268.297333 63.808491,272.701050 64.974403,278.042297 
	C47.362869,276.991730 40.020012,291.903717 27.844805,300.510773 
	C26.870901,296.046051 25.970284,291.917297 25.052109,287.393982 
z"/>
<path fill="#F7F7F7" opacity="1.000000" stroke="none" 
	d="
M122.530441,419.129730 
	C123.968124,416.146484 125.275589,413.491272 126.758362,410.480011 
	C130.497910,412.281525 133.886215,413.913818 137.515106,415.662048 
	C142.003433,406.655121 146.348236,397.936218 150.855911,388.890472 
	C155.210312,391.037109 159.154160,392.981354 163.430649,395.089600 
	C158.941956,404.208466 154.650055,412.927551 150.184555,421.999298 
	C153.769272,423.827789 157.124634,425.539307 160.755890,427.391571 
	C159.068832,430.737640 157.524551,433.800537 155.807480,437.206146 
	C144.660904,431.607941 133.850723,426.187744 123.064323,420.720642 
	C122.718445,420.545349 122.616096,419.889557 122.530441,419.129730 
z"/>
<path fill="#F7F7F7" opacity="1.000000" stroke="none" 
	d="
M417.739502,271.610046 
	C416.510101,277.197906 415.453522,282.382141 414.274506,288.167206 
	C410.767487,287.544250 407.457336,286.956268 403.559143,286.263824 
	C405.680298,275.545197 407.720642,265.235016 409.857239,254.438431 
	C423.452789,257.126007 436.557739,259.716644 450.063538,262.386505 
	C449.117249,267.101959 448.252197,271.412384 447.321411,276.050537 
	C439.018036,274.443665 431.075043,272.858734 423.108398,271.403259 
	C421.420715,271.094910 419.646576,271.259674 417.739502,271.610046 
z"/>
<path fill="#121212" opacity="1.000000" stroke="none" 
	d="
M215.544159,263.041382 
	C216.395248,262.074280 217.685959,261.111847 219.192032,259.988861 
	C218.320633,259.365601 217.027069,258.915680 216.594971,258.040497 
	C215.390945,255.601776 214.544220,252.986618 213.556427,250.441132 
	C216.416061,249.658661 219.532333,247.736206 222.086395,248.311142 
	C229.252029,249.924225 233.504807,260.143982 230.547531,267.266815 
	C229.601456,263.325226 227.618591,260.957489 223.123581,262.595093 
	C220.692719,263.003510 218.338272,263.024780 215.544159,263.041382 
z"/>
<path fill="#0B0B0B" opacity="1.000000" stroke="none" 
	d="
M246.336060,262.007568 
	C242.030014,260.686096 240.139374,261.814514 237.761749,266.905212 
	C235.422546,259.793915 238.287750,252.447662 244.790848,248.882919 
	C248.168228,247.031570 253.585709,247.595352 254.700119,250.283905 
	C256.383789,254.345840 253.947388,256.800262 250.613556,258.666473 
	C249.990433,259.015289 249.536972,259.667206 249.019394,260.544800 
	C248.250549,261.280121 247.467529,261.649811 246.336060,262.007568 
z"/>
<path fill="#525252" opacity="1.000000" stroke="none" 
	d="
M194.091431,123.166039 
	C196.156235,123.137245 198.194473,123.430710 200.629272,124.105774 
	C201.060623,124.829933 201.095413,125.172493 201.130188,125.515060 
	C198.967484,125.379601 196.804794,125.244141 194.269836,124.934296 
	C193.953339,124.336037 194.009094,123.912170 194.091431,123.166039 
z"/>
<path fill="#525252" opacity="1.000000" stroke="none" 
	d="
M269.982513,124.039230 
	C271.320404,123.601784 272.658325,123.164330 274.348602,122.688278 
	C274.811859,123.098763 274.922699,123.547836 275.081482,124.341110 
	C273.706329,124.884628 272.283203,125.083961 270.410004,124.912186 
	C269.967468,124.373795 269.974976,124.206505 269.982513,124.039230 
z"/>
<path fill="#040404" opacity="1.000000" stroke="none" 
	d="
M281.981598,228.933502 
	C290.313110,226.717606 292.210266,220.632584 287.283203,211.928955 
	C293.819550,208.535004 305.061432,207.964951 314.658295,211.621445 
	C330.674316,217.723740 331.243713,217.245697 326.656006,234.396149 
	C319.356171,261.685333 287.533203,273.727661 261.559052,260.758789 
	C260.272644,260.116486 258.825531,258.433990 258.671875,257.095978 
	C257.156860,243.899979 260.677124,232.267029 269.425629,222.561661 
	C272.163910,224.844040 274.486145,226.779617 277.468201,229.110062 
	C277.786469,230.048004 277.185333,230.575027 277.150574,231.137085 
	C277.033447,233.031326 276.791687,235.039505 277.332214,236.775360 
	C277.485626,237.268036 281.167358,237.511444 281.458191,236.950317 
	C282.283295,235.358414 282.271973,233.297943 282.423767,231.408615 
	C282.488647,230.600632 282.141510,229.759552 281.981598,228.933502 
z"/>
<path fill="#040404" opacity="1.000000" stroke="none" 
	d="
M142.852753,215.064224 
	C155.519302,207.265335 168.572952,204.774582 182.832001,208.928925 
	C178.843033,217.209839 179.518143,222.631241 184.631210,225.620621 
	C189.943161,228.726273 195.316010,226.776993 199.952835,219.584076 
	C206.954926,226.958450 210.762192,235.395111 211.282761,245.350388 
	C211.334137,246.332809 210.979767,247.341476 211.063828,248.316391 
	C212.017944,259.381989 210.074051,258.483307 200.935944,261.273376 
	C171.837326,270.157867 144.419235,252.096283 141.558945,222.491165 
	C141.331879,220.140991 142.184402,217.686508 142.852753,215.064224 
M188.758881,235.077118 
	C190.251877,234.016068 192.088074,233.188721 193.054703,231.769226 
	C193.400528,231.261368 191.896637,228.643707 190.776886,228.227814 
	C189.662933,227.814072 186.783417,228.885132 186.751038,229.428589 
	C186.645325,231.202759 187.485504,233.033279 188.758881,235.077118 
z"/>
<path fill="#121212" opacity="1.000000" stroke="none" 
	d="
M269.579742,123.979263 
	C269.974976,124.206505 269.967468,124.373795 269.990051,124.790466 
	C261.116730,126.444336 252.249329,127.146828 242.124313,124.459389 
	C246.765244,120.008308 250.854248,119.741295 255.186523,120.675903 
	C259.865479,121.685295 264.514740,122.832314 269.579742,123.979263 
z"/>
<path fill="#121212" opacity="1.000000" stroke="none" 
	d="
M201.576447,125.638374 
	C201.095413,125.172493 201.060623,124.829933 201.003571,124.224625 
	C205.895996,122.718803 210.755081,120.964241 215.745926,120.421860 
	C218.805862,120.089325 222.067657,121.614449 225.121246,123.354851 
	C217.574265,127.472237 209.732452,125.924171 201.576447,125.638374 
z"/>
<path fill="#121212" opacity="1.000000" stroke="none" 
	d="
M276.194153,179.829117 
	C280.557068,180.335953 282.837097,182.596207 281.362457,186.493454 
	C280.750000,188.112137 278.015015,189.804260 276.223511,189.828079 
	C274.740326,189.847794 272.440826,187.727997 271.893433,186.091141 
	C270.869995,183.030716 272.533997,180.729660 276.194153,179.829117 
z"/>
<path fill="#161616" opacity="1.000000" stroke="none" 
	d="
M207.427063,202.559891 
	C202.340515,201.854309 200.324463,198.892685 202.737320,196.015732 
	C203.630981,194.950180 205.617111,194.067047 206.911987,194.279160 
	C208.194824,194.489288 210.227570,196.248306 210.165237,197.213943 
	C210.050491,198.991440 208.641220,200.685379 207.427063,202.559891 
z"/>
<path fill="#DADADA" opacity="1.000000" stroke="none" 
	d="
M281.791473,228.694550 
	C282.141510,229.759552 282.488647,230.600632 282.423767,231.408615 
	C282.271973,233.297943 282.283295,235.358414 281.458191,236.950317 
	C281.167358,237.511444 277.485626,237.268036 277.332214,236.775360 
	C276.791687,235.039505 277.033447,233.031326 277.150574,231.137085 
	C277.185333,230.575027 277.786469,230.048004 277.835632,229.125122 
	C278.895905,228.648758 280.248627,228.552185 281.791473,228.694550 
z"/>
<path fill="#1B1B1B" opacity="1.000000" stroke="none" 
	d="
M152.907135,188.610535 
	C155.021591,188.969223 156.827591,189.567810 158.633575,190.166397 
	C158.077515,191.720612 157.933289,193.790833 156.835831,194.666718 
	C155.948776,195.374710 152.711700,194.946030 152.598831,194.497635 
	C152.153290,192.727341 152.528137,190.750610 152.907135,188.610535 
z"/>
<path fill="#1B1B1B" opacity="1.000000" stroke="none" 
	d="
M366.115143,365.794800 
	C368.206451,366.113159 370.023682,366.695099 371.840942,367.277069 
	C371.952850,367.899048 372.064789,368.521027 372.176697,369.143005 
	C369.921570,371.062164 367.813782,373.211731 365.342224,374.792542 
	C364.282623,375.470276 362.466522,374.965271 360.994141,374.997650 
	C361.069153,373.524750 360.645172,371.735901 361.332306,370.650543 
	C362.454193,368.878540 364.300476,367.565216 366.115143,365.794800 
z"/>
<path fill="#161616" opacity="1.000000" stroke="none" 
	d="
M380.060944,381.931946 
	C379.079407,382.844635 378.442139,383.867401 377.600891,384.078979 
	C376.105560,384.454987 374.486572,384.339447 372.919312,384.429535 
	C373.244812,382.873688 373.192535,381.077606 373.990784,379.822388 
	C375.005219,378.227112 376.709137,377.070251 378.319855,375.529175 
	C380.436249,377.349915 384.089264,378.223053 380.060944,381.931946 
z"/>
<path fill="#121212" opacity="1.000000" stroke="none" 
	d="
M58.705017,324.889404 
	C60.965405,327.110291 62.840378,329.264252 65.205368,331.981140 
	C61.825802,333.778778 59.306793,335.118683 56.835224,336.433319 
	C51.483288,328.805939 51.842724,326.513947 58.705017,324.889404 
z"/>
<path fill="#080808" opacity="1.000000" stroke="none" 
	d="
M163.305389,57.669922 
	C162.330933,56.092201 161.438965,54.860477 160.918350,53.487896 
	C159.028030,48.503979 160.745041,43.732864 165.079788,41.568367 
	C169.135651,39.543137 173.754196,40.886936 176.401749,44.862549 
	C179.504791,49.522186 179.139053,55.597805 175.344711,58.489666 
	C171.364395,61.523270 167.341187,61.330818 163.305389,57.669922 
z"/>
<path fill="#090909" opacity="1.000000" stroke="none" 
	d="
M321.719696,421.138458 
	C319.036957,420.384003 316.361969,420.072876 314.562195,418.652679 
	C310.684692,415.592926 309.624725,409.789429 311.813416,406.009094 
	C313.836090,402.515594 316.963440,400.795593 321.010132,401.485229 
	C325.187927,402.197235 328.637970,406.470367 329.157135,411.152954 
	C329.702362,416.070160 327.707062,418.886200 321.719696,421.138458 
z"/>
<path fill="#0B0B0B" opacity="1.000000" stroke="none" 
	d="
M116.185455,91.451935 
	C110.159386,92.040764 106.443832,90.018013 104.182137,85.178505 
	C102.468880,81.512527 102.444176,77.588181 105.756729,75.258942 
	C108.138313,73.584320 111.837311,72.536201 114.647758,73.006508 
	C119.024460,73.738922 121.534294,77.470322 122.195633,81.878929 
	C122.873596,86.398338 120.590332,89.463409 116.185455,91.451935 
z"/>
<path fill="#0B0B0B" opacity="1.000000" stroke="none" 
	d="
M91.005226,375.586975 
	C92.317307,373.448181 93.258217,371.408325 94.785889,370.009064 
	C99.026512,366.124847 104.520813,366.517456 107.948692,370.656464 
	C111.228180,374.616272 110.497787,379.876495 106.113655,383.871826 
	C101.776688,387.824158 96.181831,388.041626 93.034035,383.733978 
	C91.555099,381.710083 91.566048,378.597504 91.005226,375.586975 
z"/>
<path fill="#121212" opacity="1.000000" stroke="none" 
	d="
M265.906311,431.087158 
	C266.181213,433.462280 266.403168,435.423431 266.677826,437.849976 
	C263.038544,438.203217 259.066895,440.666901 256.537262,436.188446 
	C255.814926,434.909607 256.672211,431.267578 257.784668,430.727722 
	C260.142029,429.583771 263.210907,426.804443 265.906311,431.087158 
z"/>
<path fill="#121212" opacity="1.000000" stroke="none" 
	d="
M374.604919,96.289406 
	C372.494720,94.746979 370.720184,93.313911 368.457520,91.486679 
	C370.705597,89.100700 372.666321,87.019684 375.720337,83.778328 
	C377.477325,87.389458 379.186798,90.181480 379.998840,93.213821 
	C380.151306,93.783127 376.718750,95.312454 374.604919,96.289406 
z"/>
<path fill="#272727" opacity="1.000000" stroke="none" 
	d="
M199.727554,424.129456 
	C201.555725,424.495941 202.981918,424.831604 205.069336,425.322906 
	C203.418091,428.049866 201.907394,430.544708 200.396698,433.039551 
	C199.831100,432.946564 199.265488,432.853577 198.699890,432.760590 
	C198.908447,429.873260 199.117004,426.985901 199.727554,424.129456 
z"/>
<path fill="#272727" opacity="1.000000" stroke="none" 
	d="
M407.297974,328.842224 
	C405.950897,328.568542 405.006561,328.336090 403.523834,327.971130 
	C404.691620,325.784882 405.660339,323.971375 406.962006,321.534485 
	C409.198029,324.082031 411.001404,326.136597 413.412415,328.883484 
	C411.031158,328.883484 409.365906,328.883484 407.297974,328.842224 
z"/>
<path fill="#272727" opacity="1.000000" stroke="none" 
	d="
M322.435181,56.192600 
	C323.447662,56.171684 324.807709,56.403923 324.803162,56.605347 
	C324.751495,58.894329 324.491302,61.178600 324.215363,64.263168 
	C321.751526,63.052551 319.829163,62.107990 317.185944,60.809227 
	C319.216614,59.017998 320.682770,57.724720 322.435181,56.192600 
z"/>
<path fill="#E6E6E6" opacity="1.000000" stroke="none" 
	d="
M188.360367,234.959625 
	C187.485504,233.033279 186.645325,231.202759 186.751038,229.428589 
	C186.783417,228.885132 189.662933,227.814072 190.776886,228.227814 
	C191.896637,228.643707 193.400528,231.261368 193.054703,231.769226 
	C192.088074,233.188721 190.251877,234.016068 188.360367,234.959625 
z"/>
</svg>